<svg id="Camada_1" data-name="Camada 1" xmlns="http://www.w3.org/2000/svg" viewBox="0 0 1262.89 473.39" width="400" height="150"><defs><style>.cls-1{fill:#e23d5a;}.cls-2{fill:#3c2e88;}.cls-3{fill:#e8465d;}.cls-4{fill:none;}</style></defs><title>Prancheta 12</title><path class="cls-1" d="M276.64,323.61a28.16,28.16,0,0,0,3.79-.24A34.43,34.43,0,0,1,276.64,323.61Z"/><path class="cls-2" d="M419.46,198.77,389.28,152A56.67,56.67,0,0,0,311,135.06l-34.52,22.28,22,14.17L324,155.08a32.84,32.84,0,0,1,45.29,9.78l30.16,46.83A32.79,32.79,0,0,1,389.64,257l-41.1,26.49-24.53,38a56.12,56.12,0,0,1-35.6,24.65,60.59,60.59,0,0,1-6.81,1.06,56,56,0,0,0,25.66-8.8L402.54,277a56.57,56.57,0,0,0,16.92-78.23ZM276.4,323.61a34.43,34.43,0,0,1-3.79-.24A28.16,28.16,0,0,0,276.4,323.61Z"/><path class="cls-2" d="M348.54,283.47l-24.53,38a56.12,56.12,0,0,1-35.6,24.65,60.59,60.59,0,0,1-6.81,1.06c-.74.07-1.49.12-2.25.16s-1.75.08-2.64.08h-.38c-.89,0-1.75,0-2.64-.08s-1.51-.09-2.25-.16a60.59,60.59,0,0,1-6.81-1.06A56.17,56.17,0,0,1,229,321.52l-24.53-38-5.63-8.75a56.54,56.54,0,0,1,16.9-78.23l38.77-25,22,14.17-47.86,30.83a32.79,32.79,0,0,0-9.78,45.29L249,308.6a32.79,32.79,0,0,0,23.57,14.77,28.16,28.16,0,0,0,3.79.24h.24a28.16,28.16,0,0,0,3.79-.24,32.26,32.26,0,0,0,13.9-5Z"/><path class="cls-3" d="M354.18,274.72l-5.64,8.75-54.21,34.94a32.26,32.26,0,0,1-13.9,5A32.75,32.75,0,0,0,304,308.6l30.17-46.8a32.78,32.78,0,0,0-9.79-45.29l-47.85-30.83-22-14.17-25.46-16.43a32.79,32.79,0,0,0-45.29,9.78l-30.16,46.83A32.76,32.76,0,0,0,163.4,257l41.09,26.49,24.53,38a56.17,56.17,0,0,0,35.61,24.65,60.59,60.59,0,0,0,6.81,1.06,56,56,0,0,1-25.66-8.8L150.5,277a56.59,56.59,0,0,1-16.93-78.23L163.73,152A56.64,56.64,0,0,1,242,135.06l34.55,22.28,22,14.17,38.77,25a56.53,56.53,0,0,1,16.91,78.23Z"/><path class="cls-2" d="M576,183.52h25.19L555.8,297.69a16.46,16.46,0,0,1-15.29,10.37h0a16.47,16.47,0,0,1-15.12-10L476.1,183.52h25.67L540.2,279.2Z"/><path class="cls-2" d="M624.51,152.42a14.59,14.59,0,0,1-4.61-10.88,15.53,15.53,0,0,1,15.61-15.61,14.91,14.91,0,0,1,10.88,4.61,15.36,15.36,0,0,1,4.5,11,14.9,14.9,0,0,1-4.5,10.88,15.32,15.32,0,0,1-10.88,4.49A15,15,0,0,1,624.51,152.42Zm-1.18,155.64V183.52h24.13V308.06Z"/><path class="cls-2" d="M769.27,183.52h25.19L749,297.69a16.46,16.46,0,0,1-15.29,10.37h0a16.45,16.45,0,0,1-15.11-10l-49.3-114.58H695l38.43,95.68Z"/><path class="cls-2" d="M928.44,253.18H830.28q4.8,34.59,48.61,34.54a101.52,101.52,0,0,0,28.86-4.14,87.84,87.84,0,0,0,8.75-3.32c1.54-.7,4.85-2.12,5-2.12v22.94A106.26,106.26,0,0,1,875.93,311c-22.23,0-40.68-7.09-52.27-18.92s-18-27.67-18-45.77c0-24.13,10.65-45.06,29.69-57a60.36,60.36,0,0,1,32.4-8.87q26.44,0,44,18.09,17.38,18.27,17.38,46.84A41,41,0,0,1,928.44,253.18Zm-97.68-20.7h76.16c-3.31-19.27-17.74-29.33-38.2-29.33S834.54,213.21,830.76,232.48Z"/><path class="cls-2" d="M945.82,289.49l11.47-18.33c7.57,6.27,14.66,10.76,21.17,13.48a54.26,54.26,0,0,0,21.88,4.26c17.62,0,28.62-6.39,28.62-16.44.59-5.68-4.38-9.7-9.58-12.3-2.84-1.54-10.53-3.67-14-4.49-1.89-.48-4.61-1.07-8.27-1.9s-6.86-1.53-9.11-2.13-5.2-1.3-8.63-2.24a67.45,67.45,0,0,1-15.5-6.27A27.87,27.87,0,0,1,953,233.19c-3-4.13-4.26-9.22-4.26-15.37,0-11.47,4.62-20.58,14-27.32s21.17-10.05,35.71-10.05c20.23,0,38.8,7,51.45,17.38l-9.46,18a123.45,123.45,0,0,0-20.93-10.53A55.39,55.39,0,0,0,1000,202c-7.92,0-14.43,1.42-19.51,4.14s-7.69,6.27-7.69,10.41a8.08,8.08,0,0,0,4,7.33,26,26,0,0,0,9.58,4.38q3.74.89,5.68,1.42c1.3.35,3.55.71,6.5,1.3s5,.94,5.92,1.18c14.78,3,25.31,6.62,34.53,12.66s14,15.13,14,26.84c0,11.95-4.62,21.41-14,28.5s-21.88,10.76-37.61,10.76C979.17,310.89,958.94,303.21,945.82,289.49Z"/><path class="cls-2" d="M1069.41,146.27h23.89v37.25h37.13v20H1093.3v63.15a55.6,55.6,0,0,0,.59,10.41c.47,4,1.42,5.32,3.66,8,2.84,3.55,9,5.09,18.45,5.09a97,97,0,0,0,22.36-2.48v20.22A133,133,0,0,1,1110.8,311c-13.72,0-23.18-3.19-29.09-8.63-4.26-3.78-6.75-6.74-8.64-11.94a44.91,44.91,0,0,1-3.19-13.49,101.55,101.55,0,0,1-.47-11.71v-119Z"/><rect class="cls-4" width="1262.89" height="473.39"/></svg>