<svg version="1.1" id="Layer_1" xmlns="http://www.w3.org/2000/svg" xmlns:xlink="http://www.w3.org/1999/xlink" x="0px" y="0px"
	 width="100%" viewBox="0 0 536 362" enable-background="new 0 0 536 362" xml:space="preserve">
<path fill="#FFFFFF" opacity="1.000000" stroke="none" 
	d="
M360.000000,363.000000 
	C240.033249,363.000000 120.566483,363.000000 1.049863,363.000000 
	C1.049863,242.400162 1.049863,121.800293 1.049863,1.100213 
	C179.550095,1.100213 358.100281,1.100213 536.825195,1.100213 
	C536.825195,121.666458 536.825195,242.333206 536.825195,363.000000 
	C478.133575,363.000000 419.316803,363.000000 360.000000,363.000000 
M207.070374,336.579376 
	C207.436264,336.740997 207.802139,336.902649 208.645645,337.498260 
	C210.024658,338.429413 211.398209,339.368774 212.783524,340.290436 
	C244.198853,361.192017 276.776062,363.459625 308.948669,343.400208 
	C358.345856,312.601501 407.239105,280.972626 455.859192,248.956467 
	C494.851227,223.280365 506.079620,173.259796 481.932587,133.243790 
	C466.128479,107.053596 449.361115,81.401802 432.075958,56.158836 
	C409.488220,23.172007 364.092316,10.126880 328.283081,27.901585 
	C305.769440,39.076752 285.238373,54.246117 263.148834,67.327927 
	C246.457138,56.671822 229.672577,46.157627 213.102585,35.315533 
	C199.396500,26.347364 184.409836,20.775459 168.186539,20.426075 
	C135.664444,19.725683 109.741074,32.906277 91.675247,60.250179 
	C76.444992,83.302231 61.658287,106.647095 46.641342,129.840393 
	C36.762501,145.098038 31.620575,161.863220 32.445080,179.952652 
	C33.857128,210.932785 48.192444,234.661713 74.314514,251.409729 
	C112.848061,276.115326 151.285217,300.971222 189.792618,325.717651 
	C194.797897,328.934235 199.976562,331.881042 205.017761,334.996155 
	C205.017761,334.996155 205.023804,334.924683 205.217819,335.538025 
	C205.816956,335.717163 206.416092,335.896301 207.010086,335.991180 
	C207.010086,335.991180 206.925659,335.992157 207.070374,336.579376 
z"/>
<path fill="#3D2F89" opacity="1.000000" stroke="none" 
	d="
M263.817871,67.623596 
	C285.238373,54.246117 305.769440,39.076752 328.283081,27.901585 
	C364.092316,10.126880 409.488220,23.172007 432.075958,56.158836 
	C449.361115,81.401802 466.128479,107.053596 481.932587,133.243790 
	C506.079620,173.259796 494.851227,223.280365 455.859192,248.956467 
	C407.239105,280.972626 358.345856,312.601501 308.948669,343.400208 
	C276.776062,363.459625 244.198853,361.192017 212.783524,340.290436 
	C211.398209,339.368774 210.024658,338.429413 208.290161,337.010040 
	C207.598343,336.345245 207.262009,336.168701 206.925659,335.992157 
	C206.925659,335.992157 207.010086,335.991180 206.887177,335.726929 
	C206.184128,335.283325 205.603973,335.103973 205.023804,334.924683 
	C205.023804,334.924683 205.017761,334.996155 205.101959,334.625183 
	C200.289276,328.227600 194.937271,322.510071 190.590027,316.110077 
	C181.473114,302.688293 172.961380,288.857056 164.043304,275.297760 
	C160.250427,269.530945 156.061172,264.024811 152.120621,258.016418 
	C149.920685,253.969406 147.661331,250.300491 145.382233,246.643860 
	C120.164101,206.183182 129.994827,156.122070 169.182953,128.968857 
	C188.960129,115.265388 209.582413,102.781601 230.150558,89.897537 
	C233.967361,92.268364 237.503326,94.417740 240.935196,96.722160 
	C248.181870,101.588127 255.374084,106.535172 262.252441,111.690186 
	C238.404251,127.037537 214.796860,141.997742 191.406570,157.290009 
	C167.030930,173.226440 160.701721,203.291977 176.366257,227.707092 
	C191.008606,250.529022 205.600372,273.386810 220.580200,295.986359 
	C224.201904,301.450317 228.626343,306.789886 233.783096,310.753784 
	C250.543076,323.636749 275.857178,325.260223 297.277191,308.125671 
	C297.768372,307.752533 297.978699,307.456848 298.130524,307.151917 
	C298.072052,307.142731 298.148468,307.233154 298.471527,307.236023 
	C299.189819,306.803070 299.585083,306.367249 299.971802,305.964783 
	C299.963318,305.998077 299.900635,305.969666 300.262695,306.013092 
	C301.210693,305.760345 301.829193,305.514618 302.377930,305.160736 
	C323.986633,291.224609 345.601837,277.298401 367.174561,263.306793 
	C369.624268,261.717957 371.830963,259.754333 374.501404,257.971893 
	C397.104797,243.455353 420.081268,229.908295 441.391296,214.113022 
	C460.024933,200.301529 463.665924,172.522400 451.090729,152.183197 
	C435.699402,127.289200 419.889557,102.636353 403.615997,78.310524 
	C388.416718,55.590584 358.349976,49.987373 335.248077,64.751587 
	C322.498779,72.899559 309.750366,81.048935 296.679749,89.053879 
	C285.511261,81.814590 274.664551,74.719093 263.817871,67.623596 
z"/>
<path fill="#E8475E" opacity="1.000000" stroke="none" 
	d="
M374.150330,257.964508 
	C371.830963,259.754333 369.624268,261.717957 367.174561,263.306793 
	C345.601837,277.298401 323.986633,291.224609 302.377930,305.160736 
	C301.829193,305.514618 301.210693,305.760345 300.104919,305.670074 
	C301.732208,302.326569 304.018250,299.459625 306.004364,296.398071 
	C320.663422,273.801697 335.325867,251.206970 349.864105,228.532806 
	C366.466919,202.638779 360.051208,173.244308 334.171906,156.509995 
	C311.972717,142.155319 289.707916,127.902023 267.440704,113.653008 
	C265.959656,112.705276 264.212189,112.173965 262.588623,111.448959 
	C255.374084,106.535172 248.181870,101.588127 240.935196,96.722160 
	C237.503326,94.417740 233.967361,92.268364 229.934875,89.667320 
	C216.984161,81.214607 204.613022,73.087471 192.162430,65.083908 
	C167.899155,49.486828 138.356888,55.312546 122.470901,79.305656 
	C106.862404,102.879662 91.590942,126.684525 76.574471,150.640625 
	C61.841145,174.145020 67.643097,202.900818 90.529549,218.474106 
	C110.736671,232.224228 131.522003,245.124634 152.052032,258.400208 
	C156.061172,264.024811 160.250427,269.530945 164.043304,275.297760 
	C172.961380,288.857056 181.473114,302.688293 190.590027,316.110077 
	C194.937271,322.510071 200.289276,328.227600 205.130539,334.603516 
	C199.976562,331.881042 194.797897,328.934235 189.792618,325.717651 
	C151.285217,300.971222 112.848061,276.115326 74.314514,251.409729 
	C48.192444,234.661713 33.857128,210.932785 32.445080,179.952652 
	C31.620575,161.863220 36.762501,145.098038 46.641342,129.840393 
	C61.658287,106.647095 76.444992,83.302231 91.675247,60.250179 
	C109.741074,32.906277 135.664444,19.725683 168.186539,20.426075 
	C184.409836,20.775459 199.396500,26.347364 213.102585,35.315533 
	C229.672577,46.157627 246.457138,56.671822 263.483337,67.475761 
	C274.664551,74.719093 285.511261,81.814590 296.871521,89.320450 
	C316.511963,102.100189 335.718079,114.348961 354.748413,126.865059 
	C390.043762,150.078552 403.974457,189.922501 389.722565,229.183548 
	C386.041168,239.325104 379.420715,248.399765 374.150330,257.964508 
z"/>
<path fill="#E8475E" opacity="1.000000" stroke="none" 
	d="
M205.120819,335.231323 
	C205.603973,335.103973 206.184128,335.283325 206.889755,335.769043 
	C206.416092,335.896301 205.816956,335.717163 205.120819,335.231323 
z"/>
<path fill="#E8475E" opacity="1.000000" stroke="none" 
	d="
M206.998016,336.285767 
	C207.262009,336.168701 207.598343,336.345245 208.051346,336.793060 
	C207.802139,336.902649 207.436264,336.740997 206.998016,336.285767 
z"/>
<path fill="#FFFEFF" opacity="1.000000" stroke="none" 
	d="
M262.252441,111.690193 
	C264.212189,112.173965 265.959656,112.705276 267.440704,113.653008 
	C289.707916,127.902023 311.972717,142.155319 334.171906,156.509995 
	C360.051208,173.244308 366.466919,202.638779 349.864105,228.532806 
	C335.325867,251.206970 320.663422,273.801697 306.004364,296.398071 
	C304.018250,299.459625 301.732208,302.326569 299.742859,305.626648 
	C299.900635,305.969666 299.963318,305.998077 299.654663,305.792297 
	C298.946869,306.135437 298.547668,306.684296 298.148468,307.233154 
	C298.148468,307.233154 298.072052,307.142731 297.840576,307.192657 
	C297.404816,307.562775 297.200562,307.882935 296.996307,308.203125 
	C275.857178,325.260223 250.543076,323.636749 233.783096,310.753784 
	C228.626343,306.789886 224.201904,301.450317 220.580200,295.986359 
	C205.600372,273.386810 191.008606,250.529022 176.366257,227.707092 
	C160.701721,203.291977 167.030930,173.226440 191.406570,157.290009 
	C214.796860,141.997742 238.404251,127.037537 262.252441,111.690193 
z"/>
<path fill="#FFFEFE" opacity="1.000000" stroke="none" 
	d="
M152.120621,258.016418 
	C131.522003,245.124634 110.736671,232.224228 90.529549,218.474106 
	C67.643097,202.900818 61.841145,174.145020 76.574471,150.640625 
	C91.590942,126.684525 106.862404,102.879662 122.470901,79.305656 
	C138.356888,55.312546 167.899155,49.486828 192.162430,65.083908 
	C204.613022,73.087471 216.984161,81.214607 229.606888,89.516113 
	C209.582413,102.781601 188.960129,115.265388 169.182953,128.968857 
	C129.994827,156.122070 120.164101,206.183182 145.382233,246.643860 
	C147.661331,250.300491 149.920685,253.969406 152.120621,258.016418 
z"/>
<path fill="#FEFEFE" opacity="1.000000" stroke="none" 
	d="
M374.501404,257.971893 
	C379.420715,248.399765 386.041168,239.325104 389.722565,229.183548 
	C403.974457,189.922501 390.043762,150.078552 354.748413,126.865059 
	C335.718079,114.348961 316.511963,102.100189 297.193359,89.464249 
	C309.750366,81.048935 322.498779,72.899559 335.248077,64.751587 
	C358.349976,49.987373 388.416718,55.590584 403.615997,78.310524 
	C419.889557,102.636353 435.699402,127.289200 451.090729,152.183197 
	C463.665924,172.522400 460.024933,200.301529 441.391296,214.113022 
	C420.081268,229.908295 397.104797,243.455353 374.501404,257.971893 
z"/>
<path fill="#E8475E" opacity="1.000000" stroke="none" 
	d="
M298.471527,307.236023 
	C298.547668,306.684296 298.946869,306.135437 299.663177,305.759003 
	C299.585083,306.367249 299.189819,306.803070 298.471527,307.236023 
z"/>
<path fill="#E8475E" opacity="1.000000" stroke="none" 
	d="
M297.277191,308.125671 
	C297.200562,307.882935 297.404816,307.562775 297.899048,307.201843 
	C297.978699,307.456848 297.768372,307.752533 297.277191,308.125671 
z"/>
</svg>